<svg preserveAspectRatio="none" width="100%" height="100%" overflow="visible" style="display: block;" viewBox="0 0 24 24" fill="none" xmlns="http://www.w3.org/2000/svg">
<g id="Frame">
<path id="Vector" d="M20 22C19.7445 22.0002 19.4987 21.9025 19.313 21.727L12 14.815L4.687 21.727C4.54499 21.8613 4.36676 21.951 4.17433 21.985C3.9819 22.0191 3.78371 21.996 3.60424 21.9187C3.42477 21.8414 3.2719 21.7131 3.16451 21.5499C3.05713 21.3866 2.99993 21.1954 3 21V3C3 2.73478 3.10536 2.48043 3.29289 2.29289C3.48043 2.10536 3.73478 2 4 2H20C20.2652 2 20.5196 2.10536 20.7071 2.29289C20.8946 2.48043 21 2.73478 21 3V21C21 21.2652 20.8946 21.5196 20.7071 21.7071C20.5196 21.8946 20.2652 22 20 22Z" fill="var(--fill-0, black)"/>
</g>
</svg>
