<svg preserveAspectRatio="none" width="100%" height="100%" overflow="visible" style="display: block;" viewBox="0 0 24 24" fill="none" xmlns="http://www.w3.org/2000/svg">
<g id="Post icon">
<path id="Icon" fill-rule="evenodd" clip-rule="evenodd" d="M3.8064 6.2064C4.70653 5.30654 5.92721 4.80102 7.2 4.80102C8.47279 4.80102 9.69347 5.30654 10.5936 6.2064L12 7.6116L13.4064 6.2064C13.8492 5.74795 14.3788 5.38228 14.9645 5.13071C15.5501 4.87915 16.1799 4.74674 16.8173 4.7412C17.4546 4.73566 18.0867 4.85711 18.6766 5.09846C19.2665 5.3398 19.8024 5.69622 20.2531 6.1469C20.7038 6.59759 21.0602 7.13352 21.3015 7.72342C21.5429 8.31332 21.6643 8.94538 21.6588 9.58273C21.6533 10.2201 21.5208 10.8499 21.2693 11.4355C21.0177 12.0212 20.652 12.5508 20.1936 12.9936L12 21.1884L3.8064 12.9936C2.90654 12.0935 2.40103 10.8728 2.40103 9.6C2.40103 8.32721 2.90654 7.10653 3.8064 6.2064Z" fill="var(--fill-0, #EA1111)" stroke="var(--stroke-0, #EA1111)" stroke-width="2" stroke-linejoin="round"/>
</g>
</svg>
