<svg preserveAspectRatio="none" width="100%" height="100%" overflow="visible" style="display: block;" viewBox="0 0 20 20" fill="none" xmlns="http://www.w3.org/2000/svg">
<g id="Frame">
<path id="Vector" fill-rule="evenodd" clip-rule="evenodd" d="M8.891 2.09C11.51 2.407 13.681 4.483 14.121 7.086C14.2596 7.89136 14.2343 8.7164 14.0467 9.51177C13.859 10.3071 13.5129 11.0565 13.029 11.715L12.879 11.909L12.743 12.072L12.708 12.06L12.785 12.11L12.855 12.171L16.98 16.296C17.0973 16.4154 17.1655 16.5745 17.171 16.7418C17.1765 16.9091 17.1189 17.0723 17.0096 17.1991C16.9003 17.3259 16.7473 17.4069 16.5811 17.4262C16.4148 17.4454 16.2474 17.4015 16.112 17.303L16.037 17.239L11.913 13.114C11.855 13.056 11.809 12.989 11.839 12.932C11.173 13.4499 10.4064 13.8233 9.58797 14.0282C8.76958 14.2331 7.91744 14.265 7.086 14.122C4.483 13.682 2.407 11.51 2.089 8.892C1.97226 7.9709 2.06782 7.0353 2.36837 6.15681C2.66891 5.27833 3.16646 4.48026 3.82294 3.82368C4.47942 3.16711 5.27742 2.66944 6.15586 2.36877C7.03429 2.0681 7.96988 1.9734 8.891 2.09ZM8.105 3.209C6.80623 3.209 5.56066 3.72493 4.6423 4.6433C3.72393 5.56166 3.208 6.80723 3.208 8.106C3.208 9.40476 3.72393 10.6503 4.6423 11.5687C5.56066 12.4871 6.80623 13.003 8.105 13.003C9.40376 13.003 10.6493 12.4871 11.5677 11.5687C12.4861 10.6503 13.002 9.40476 13.002 8.106C13.002 6.80723 12.4861 5.56166 11.5677 4.6433C10.6493 3.72493 9.40376 3.209 8.105 3.209Z" fill="var(--fill-0, #D0D5DD)"/>
</g>
</svg>
