<svg preserveAspectRatio="none" width="100%" height="100%" overflow="visible" style="display: block;" viewBox="0 0 20 20" fill="none" xmlns="http://www.w3.org/2000/svg">
<g id="Frame">
<path id="Vector" fill-rule="evenodd" clip-rule="evenodd" d="M11.5548 12.4H8.6965V16.6996H4.18861C3.60471 16.6996 3.12697 16.2733 3.07144 15.7278L3.06654 15.6241V9.88636C2.84568 9.87821 2.63218 9.80483 2.45298 9.67548C2.27377 9.54613 2.1369 9.3666 2.05961 9.15954C1.99369 8.97243 1.98234 8.77043 2.02687 8.5771C2.07141 8.38378 2.17 8.2071 2.31114 8.06769L2.39444 7.99256L9.4421 2.25561C9.63093 2.10359 9.86274 2.01472 10.1048 2.00153C10.3469 1.98834 10.587 2.05151 10.7912 2.18212L10.8916 2.25561L17.9393 7.99256C18.2888 8.28247 18.4211 8.74469 18.2741 9.16281C18.2042 9.35213 18.0839 9.51883 17.9264 9.64501C17.7689 9.77118 17.5799 9.85208 17.3799 9.87901L17.2656 9.88963V15.6241C17.2656 16.1827 16.8213 16.6425 16.2529 16.6947L16.1451 16.6996H11.5556L11.5548 12.4Z" fill="var(--fill-0, #D0D5DD)"/>
</g>
</svg>
